# xmcd
#
# Track frame offsets:
#	150
#	16867
#	34972
#	51637
#	69330
#	85097
#	99279
#	115962
#	132605
#	148855
#	164595
#	180559
#	197825
#	213437
#	230185
#	246782
#	264330
#	278302
#	293745
#	311422
#
# Disc length: 4374 seconds
#
# Revision: 0
# Processed by: cddbd v1.5.2PL0 Copyright (c) Steve Scherf et al.
# Submitted via: EasyCDDAExtractor 10.0.3.1
#
DISCID=28111414
DTITLE=Various Artist - CARNIVAL DANCE ATTACK '98
DYEAR=1900
DGENRE=DANCE
TTITLE0=SCOOTER - No Fate
TTITLE1=N-TRANCE feat. ROD STEWART - Da Ya Think I'm Sexy
TTITLE2=BROOKLYN BOUNCE - The Real Bass
TTITLE3=DARIO G - Sunchyme
TTITLE4=PLANET GROOVE - Bamba Ibiza
TTITLE5=GAVIN BROTHERS - Start To Party
TTITLE6=KOKO - Open Your Eyes
TTITLE7=TONY DAVIS feat. TARA - Misterio
TTITLE8=TRIPLE S - Keep Your Head
TTITLE9=DELICIOUS DELIGHT - Forever Mine
TTITLE10=TREY D - Mirror Mirror
TTITLE11=YOUNG DEENAY - Walk On By
TTITLE12=HIP OPERA! feat. MICHAEL D. KAY - Love Is Forever
TTITLE13=PRINCESSA - Anyone But You
TTITLE14=SECRET SERVICE - Flash In The Night
TTITLE15=MOONCHILD - V.O.A.T.
TTITLE16=MEGA'LO MANIA - Circusclown
TTITLE17=PORN KINGS - Amour (C'Mon)
TTITLE18=STATIC - Gonna Take U Higher
TTITLE19=TRICK - Szalony Czas
EXTD=
EXTT0=
EXTT1=
EXTT2=
EXTT3=
EXTT4=
EXTT5=
EXTT6=
EXTT7=
EXTT8=
EXTT9=
EXTT10=
EXTT11=
EXTT12=
EXTT13=
EXTT14=
EXTT15=
EXTT16=
EXTT17=
EXTT18=
EXTT19=
PLAYORDER=
